<?xml version="1.0" encoding="UTF-8" standalone="no"?>
<svg
   xmlns:dc="http://purl.org/dc/elements/1.1/"
   xmlns:cc="http://creativecommons.org/ns#"
   xmlns:rdf="http://www.w3.org/1999/02/22-rdf-syntax-ns#"
   xmlns:svg="http://www.w3.org/2000/svg"
   xmlns="http://www.w3.org/2000/svg"
   xmlns:sodipodi="http://sodipodi.sourceforge.net/DTD/sodipodi-0.dtd"
   xmlns:inkscape="http://www.inkscape.org/namespaces/inkscape"
   version="1.1"
   id="svg2"
   xml:space="preserve"
   width="1032.3066"
   height="289.79999"
   viewBox="0 0 1032.3066 289.79999"
   sodipodi:docname="laps logo landscape.eps"><metadata
     id="metadata8"><rdf:RDF><cc:Work
         rdf:about=""><dc:format>image/svg+xml</dc:format><dc:type
           rdf:resource="http://purl.org/dc/dcmitype/StillImage" /></cc:Work></rdf:RDF></metadata><defs
     id="defs6" /><sodipodi:namedview
     pagecolor="#ffffff"
     bordercolor="#666666"
     borderopacity="1"
     objecttolerance="10"
     gridtolerance="10"
     guidetolerance="10"
     inkscape:pageopacity="0"
     inkscape:pageshadow="2"
     inkscape:window-width="640"
     inkscape:window-height="480"
     id="namedview4" /><g
     id="g10"
     inkscape:groupmode="layer"
     inkscape:label="ink_ext_XXXXXX"
     transform="matrix(1.3333333,0,0,-1.3333333,0,289.8)"><g
       id="g12"
       transform="scale(0.1)"><path
         d="M 2089.58,70.8789 H 0 V 2160.43 H 2089.58 V 70.8789"
         style="fill:#b2db18;fill-opacity:1;fill-rule:nonzero;stroke:none"
         id="path14" /><path
         d="M 2089.58,68.1289 H 1120.11 L 267.102,921.051 633.473,1199.91 902.715,930.641 1231.69,1199.91 1505.97,925.711 1827.08,1199.91 2089.58,937.43 V 68.1289"
         style="fill:#9dc215;fill-opacity:1;fill-rule:nonzero;stroke:none"
         id="path16" /><path
         d="m 678.59,1068.86 c 0,-127.04 -103.102,-230.098 -230.172,-230.098 -127.086,0 -230.102,103.058 -230.102,230.098 0,127.07 103.016,230.16 230.102,230.16 127.07,0 230.172,-103.09 230.172,-230.16"
         style="fill:#ffffff;fill-opacity:1;fill-rule:nonzero;stroke:none"
         id="path18" /><path
         d="m 1274.16,1068.86 c 0,-127.04 -103.06,-230.098 -230.17,-230.098 -127.088,0 -230.135,103.058 -230.135,230.098 0,127.07 103.047,230.16 230.135,230.16 127.11,0 230.17,-103.09 230.17,-230.16"
         style="fill:#5a5758;fill-opacity:1;fill-rule:nonzero;stroke:none"
         id="path20" /><path
         d="m 1869.7,1068.86 c 0,-127.04 -103.02,-230.098 -230.11,-230.098 -127.05,0 -230.13,103.058 -230.13,230.098 0,127.07 103.08,230.16 230.13,230.16 127.09,0 230.11,-103.09 230.11,-230.16"
         style="fill:#393536;fill-opacity:1;fill-rule:nonzero;stroke:none"
         id="path22" /><path
         d="M 2962.42,2127.26 V 1012.6 h 694.26 V 777.332 H 2707.86 V 2127.26 h 254.56"
         style="fill:#393536;fill-opacity:1;fill-rule:nonzero;stroke:none"
         id="path24" /><path
         d="m 4441.54,1843.77 -250.71,-574.68 h 501.41 z m 352.91,-811.88 H 4088.63 L 3972.92,777.332 h -275.79 l 605.55,1349.928 h 277.7 L 5185.93,777.332 h -277.69 l -113.79,254.558"
         style="fill:#393536;fill-opacity:1;fill-rule:nonzero;stroke:none"
         id="path26" /><path
         d="m 5534.94,1407.94 h 381.85 c 325.91,0 323.99,478.27 0,478.27 h -381.85 z m 381.85,-233.35 H 5534.94 V 777.332 H 5280.39 V 2127.26 c 212.11,0 424.26,1.94 636.4,1.94 659.53,0 661.46,-954.61 0,-954.61"
         style="fill:#393536;fill-opacity:1;fill-rule:nonzero;stroke:none"
         id="path28" /><path
         d="m 7417.12,1801.35 c -46.29,77.14 -173.56,150.42 -320.13,150.42 -189,0 -279.65,-79.06 -279.65,-179.34 0,-117.64 138.87,-150.43 300.84,-169.71 281.58,-34.72 543.86,-108 543.86,-430.04 0,-300.84 -266.14,-430.071 -566.98,-430.071 -275.79,0 -487.91,84.871 -588.19,331.711 l 212.12,109.91 c 59.79,-148.49 216,-214.039 379.93,-214.039 160.05,0 310.47,55.919 310.47,202.489 0,127.26 -133.06,179.34 -312.4,198.62 -275.79,32.79 -530.34,106.07 -530.34,408.84 0,277.71 273.83,391.48 522.61,393.41 210.22,0 428.14,-59.78 530.34,-268.06 l -202.48,-104.14"
         style="fill:#393536;fill-opacity:1;fill-rule:nonzero;stroke:none"
         id="path30" /><path
         d="M 2866.65,95.1914 H 2716.28 V 385 h 33.96 V 125.898 h 116.41 V 95.1914"
         style="fill:#393536;fill-opacity:1;fill-rule:nonzero;stroke:none"
         id="path32" /><path
         d="m 2939.8,95.1914 h -33.14 V 302.148 h 33.14 z m -16.16,259.5076 c -5.94,0 -10.98,2.02 -15.16,6.051 -4.17,4.039 -6.26,9.16 -6.26,15.371 0,6.188 2.09,11.359 6.26,15.457 4.18,4.113 9.22,6.172 15.16,6.172 6.06,0 11.22,-2.059 15.46,-6.172 4.24,-4.098 6.36,-9.269 6.36,-15.457 0,-5.941 -2.12,-10.98 -6.36,-15.16 -4.24,-4.172 -9.4,-6.262 -15.46,-6.262"
         style="fill:#393536;fill-opacity:1;fill-rule:nonzero;stroke:none"
         id="path34" /><path
         d="m 3109.17,372.48 c -6.47,3.641 -13.81,5.45 -22.04,5.45 -23.16,0 -34.76,-14.629 -34.76,-43.852 v -31.93 h 48.52 v -28.296 h -48.52 V 95.1914 h -32.93 V 273.852 h -35.37 v 28.296 h 35.37 v 33.532 c 0,21.699 6.26,38.859 18.79,51.449 12.53,12.59 28.16,18.902 46.89,18.902 10.1,0 18.12,-1.222 24.05,-3.652 V 372.48"
         style="fill:#393536;fill-opacity:1;fill-rule:nonzero;stroke:none"
         id="path36" /><path
         d="m 3268.82,218.48 c -0.14,19.129 -4.75,34.008 -13.84,44.649 -9.1,10.652 -21.74,15.973 -37.9,15.973 -15.62,0 -28.9,-5.602 -39.81,-16.77 -10.92,-11.191 -17.66,-25.801 -20.21,-43.852 z m 33.95,-28.101 h -146.11 c 0.53,-23.027 6.73,-40.828 18.59,-53.348 11.84,-12.531 28.15,-18.812 48.9,-18.812 23.32,0 44.74,7.679 64.27,23.051 v -31.122 c -18.19,-13.2183 -42.24,-19.7964 -72.15,-19.7964 -29.23,0 -52.2,9.3789 -68.91,28.1874 -16.71,18.781 -25.06,45.231 -25.06,79.32 0,32.2 9.13,58.442 27.38,78.719 18.25,20.274 40.93,30.41 68,30.41 27.09,0 48.04,-8.758 62.86,-26.258 14.82,-17.531 22.23,-41.839 22.23,-72.968 v -17.383"
         style="fill:#393536;fill-opacity:1;fill-rule:nonzero;stroke:none"
         id="path38" /><path
         d="m 3615.63,206.961 -45.48,123.469 c -1.48,4.039 -2.96,10.511 -4.45,19.402 h -0.8 c -1.36,-8.203 -2.9,-14.672 -4.65,-19.402 l -45.06,-123.469 z m 79.42,-111.7696 h -37.59 l -30.72,81.2386 h -122.87 l -28.9,-81.2386 h -37.79 L 3548.33,385 h 35.16 L 3695.05,95.1914"
         style="fill:#393536;fill-opacity:1;fill-rule:nonzero;stroke:none"
         id="path40" /><path
         d="m 3835.51,372.48 c -6.47,3.641 -13.81,5.45 -22.03,5.45 -23.17,0 -34.76,-14.629 -34.76,-43.852 v -31.93 h 48.51 v -28.296 h -48.51 V 95.1914 h -32.94 V 273.852 h -35.37 v 28.296 h 35.37 v 33.532 c 0,21.699 6.26,38.859 18.8,51.449 12.52,12.59 28.15,18.902 46.88,18.902 10.1,0 18.12,-1.222 24.05,-3.652 V 372.48"
         style="fill:#393536;fill-opacity:1;fill-rule:nonzero;stroke:none"
         id="path42" /><path
         d="m 3966.26,97.2109 c -7.8,-4.3125 -18.11,-6.4726 -30.9,-6.4726 -36.26,0 -54.38,20.2107 -54.38,60.6527 v 122.461 h -35.56 v 28.296 h 35.56 v 50.512 l 33.15,10.711 v -61.223 h 52.13 v -28.296 h -52.13 V 157.238 c 0,-13.879 2.36,-23.789 7.07,-29.707 4.72,-5.941 12.54,-8.902 23.44,-8.902 8.36,0 15.57,2.301 21.62,6.883 V 97.2109"
         style="fill:#393536;fill-opacity:1;fill-rule:nonzero;stroke:none"
         id="path44" /><path
         d="m 4139.66,218.48 c -0.13,19.129 -4.74,34.008 -13.84,44.649 -9.1,10.652 -21.73,15.973 -37.9,15.973 -15.62,0 -28.9,-5.602 -39.8,-16.77 -10.92,-11.191 -17.66,-25.801 -20.22,-43.852 z m 33.95,-28.101 H 4027.5 c 0.53,-23.027 6.72,-40.828 18.58,-53.348 11.86,-12.531 28.17,-18.812 48.92,-18.812 23.32,0 44.73,7.679 64.27,23.051 v -31.122 c -18.18,-13.2183 -42.24,-19.7964 -72.16,-19.7964 -29.23,0 -52.19,9.3789 -68.92,28.1874 -16.7,18.781 -25.05,45.231 -25.05,79.32 0,32.2 9.13,58.442 27.39,78.719 18.25,20.274 40.92,30.41 68.01,30.41 27.06,0 48.03,-8.758 62.84,-26.258 14.83,-17.531 22.23,-41.839 22.23,-72.968 v -17.383"
         style="fill:#393536;fill-opacity:1;fill-rule:nonzero;stroke:none"
         id="path46" /><path
         d="m 4331.67,268.59 c -5.81,4.449 -14.16,6.68 -25.07,6.68 -14.15,0 -25.96,-6.68 -35.46,-20.032 -9.49,-13.316 -14.24,-31.508 -14.24,-54.558 V 95.1914 h -33.15 V 302.148 h 33.15 v -42.66 h 0.8 c 4.7,14.563 11.92,25.922 21.63,34.063 9.7,8.14 20.53,12.23 32.52,12.23 8.62,0 15.23,-0.949 19.82,-2.832 V 268.59"
         style="fill:#393536;fill-opacity:1;fill-rule:nonzero;stroke:none"
         id="path48" /><path
         d="M 4519.43,354.289 V 235.449 H 4555 c 23.45,0 41.31,5.352 53.66,16.051 12.31,10.719 18.48,25.852 18.48,45.398 0,38.262 -22.63,57.391 -67.89,57.391 z m 0,-149.551 V 95.1914 h -33.97 V 385 h 79.64 c 30.99,0 55,-7.551 72.04,-22.641 17.04,-15.089 25.58,-36.379 25.58,-63.859 0,-27.469 -9.47,-49.969 -28.4,-67.5 -18.92,-17.52 -44.49,-26.262 -76.7,-26.262 h -38.19"
         style="fill:#393536;fill-opacity:1;fill-rule:nonzero;stroke:none"
         id="path50" /><path
         d="m 4820.76,268.59 c -5.81,4.449 -14.16,6.68 -25.08,6.68 -14.15,0 -25.96,-6.68 -35.46,-20.032 -9.49,-13.316 -14.24,-31.508 -14.24,-54.558 V 95.1914 h -33.14 V 302.148 h 33.14 v -42.66 h 0.8 c 4.7,14.563 11.93,25.922 21.63,34.063 9.7,8.14 20.53,12.23 32.52,12.23 8.64,0 15.24,-0.949 19.83,-2.832 V 268.59"
         style="fill:#393536;fill-opacity:1;fill-rule:nonzero;stroke:none"
         id="path52" /><path
         d="m 4940.21,279.102 c -21.31,0 -38.14,-7.25 -50.53,-21.723 -12.41,-14.5 -18.6,-34.457 -18.6,-59.938 0,-24.519 6.26,-43.851 18.81,-57.98 12.52,-14.152 29.28,-21.242 50.32,-21.242 21.43,0 37.89,6.953 49.4,20.832 11.52,13.871 17.28,33.621 17.28,59.219 0,25.871 -5.76,45.8 -17.28,59.82 -11.51,14.012 -27.97,21.012 -49.4,21.012 z m -2.43,-188.7504 c -30.6,0 -55,9.6604 -73.26,28.9884 -18.26,19.34 -27.39,44.961 -27.39,76.91 0,34.75 9.5,61.91 28.49,81.43 18.99,19.539 44.68,29.308 76.99,29.308 30.86,0 54.94,-9.488 72.26,-28.488 17.31,-19.012 25.98,-45.352 25.98,-79.02 0,-33.019 -9.33,-59.449 -28,-79.332 -18.65,-19.867 -43.69,-29.7964 -75.07,-29.7964"
         style="fill:#393536;fill-opacity:1;fill-rule:nonzero;stroke:none"
         id="path54" /><path
         d="m 5188.57,372.48 c -6.47,3.641 -13.81,5.45 -22.02,5.45 -23.19,0 -34.77,-14.629 -34.77,-43.852 v -31.93 h 48.51 v -28.296 h -48.51 V 95.1914 h -32.94 V 273.852 h -35.37 v 28.296 h 35.37 v 33.532 c 0,21.699 6.26,38.859 18.78,51.449 12.55,12.59 28.18,18.902 46.92,18.902 10.08,0 18.11,-1.222 24.03,-3.652 V 372.48"
         style="fill:#393536;fill-opacity:1;fill-rule:nonzero;stroke:none"
         id="path56" /><path
         d="m 5348.24,218.48 c -0.14,19.129 -4.76,34.008 -13.86,44.649 -9.08,10.652 -21.72,15.973 -37.89,15.973 -15.63,0 -28.9,-5.602 -39.8,-16.77 -10.91,-11.191 -17.66,-25.801 -20.23,-43.852 z m 33.94,-28.101 h -146.11 c 0.53,-23.027 6.72,-40.828 18.58,-53.348 11.86,-12.531 28.17,-18.812 48.93,-18.812 23.3,0 44.73,7.679 64.27,23.051 v -31.122 c -18.2,-13.2183 -42.26,-19.7964 -72.16,-19.7964 -29.25,0 -52.21,9.3789 -68.93,28.1874 -16.7,18.781 -25.05,45.231 -25.05,79.32 0,32.2 9.13,58.442 27.39,78.719 18.26,20.274 40.91,30.41 68,30.41 27.07,0 48.04,-8.758 62.86,-26.258 14.81,-17.531 22.22,-41.839 22.22,-72.968 v -17.383"
         style="fill:#393536;fill-opacity:1;fill-rule:nonzero;stroke:none"
         id="path58" /><path
         d="m 5419.77,102.672 v 35.566 c 18.06,-13.347 37.94,-20.019 59.64,-20.019 29.08,0 43.65,9.703 43.65,29.101 0,5.532 -1.26,10.211 -3.74,14.071 -2.5,3.828 -5.87,7.218 -10.12,10.199 -4.23,2.961 -9.21,5.621 -14.95,7.992 -5.71,2.328 -11.88,4.809 -18.48,7.359 -9.15,3.649 -17.21,7.309 -24.16,11.008 -6.93,3.723 -12.73,7.891 -17.39,12.539 -4.63,4.641 -8.14,9.934 -10.5,15.852 -2.37,5.949 -3.53,12.871 -3.53,20.832 0,9.707 2.22,18.277 6.67,25.758 4.45,7.48 10.37,13.761 17.77,18.808 7.42,5.043 15.88,8.852 25.37,11.422 9.51,2.539 19.29,3.828 29.41,3.828 17.92,0 33.94,-3.097 48.1,-9.289 v -33.551 c -15.23,9.973 -32.73,14.954 -52.55,14.954 -6.2,0 -11.79,-0.711 -16.76,-2.114 -5,-1.418 -9.27,-3.418 -12.85,-5.957 -3.56,-2.57 -6.33,-5.652 -8.28,-9.199 -1.95,-3.582 -2.93,-7.531 -2.93,-11.844 0,-5.386 0.98,-9.879 2.93,-13.527 1.95,-3.652 4.82,-6.879 8.58,-9.699 3.78,-2.821 8.37,-5.391 13.76,-7.692 5.39,-2.289 11.51,-4.769 18.37,-7.468 9.18,-3.512 17.39,-7.114 24.66,-10.813 7.29,-3.707 13.48,-7.891 18.6,-12.519 5.12,-4.661 9.06,-10.02 11.84,-16.079 2.75,-6.062 4.13,-13.281 4.13,-21.632 0,-10.231 -2.25,-19.129 -6.77,-26.668 -4.52,-7.551 -10.55,-13.809 -18.1,-18.789 -7.55,-5 -16.24,-8.6918 -26.05,-11.1332 -9.84,-2.4297 -20.14,-3.6172 -30.92,-3.6172 -21.31,0 -39.75,4.1093 -55.4,12.3204"
         style="fill:#393536;fill-opacity:1;fill-rule:nonzero;stroke:none"
         id="path60" /><path
         d="m 5595.41,102.672 v 35.566 c 18.04,-13.347 37.92,-20.019 59.62,-20.019 29.1,0 43.66,9.703 43.66,29.101 0,5.532 -1.26,10.211 -3.74,14.071 -2.5,3.828 -5.87,7.218 -10.12,10.199 -4.24,2.961 -9.22,5.621 -14.95,7.992 -5.71,2.328 -11.89,4.809 -18.49,7.359 -9.15,3.649 -17.21,7.309 -24.15,11.008 -6.93,3.723 -12.73,7.891 -17.39,12.539 -4.63,4.641 -8.14,9.934 -10.5,15.852 -2.36,5.949 -3.53,12.871 -3.53,20.832 0,9.707 2.22,18.277 6.67,25.758 4.45,7.48 10.37,13.761 17.78,18.808 7.4,5.043 15.87,8.852 25.36,11.422 9.5,2.539 19.3,3.828 29.4,3.828 17.92,0 33.96,-3.097 48.11,-9.289 v -33.551 c -15.23,9.973 -32.73,14.954 -52.55,14.954 -6.19,0 -11.79,-0.711 -16.77,-2.114 -5,-1.418 -9.26,-3.418 -12.84,-5.957 -3.55,-2.57 -6.34,-5.652 -8.28,-9.199 -1.95,-3.582 -2.94,-7.531 -2.94,-11.844 0,-5.386 0.99,-9.879 2.94,-13.527 1.94,-3.652 4.81,-6.879 8.57,-9.699 3.79,-2.821 8.37,-5.391 13.76,-7.692 5.39,-2.289 11.52,-4.769 18.38,-7.468 9.17,-3.512 17.39,-7.114 24.66,-10.813 7.3,-3.707 13.49,-7.891 18.6,-12.519 5.11,-4.661 9.06,-10.02 11.83,-16.079 2.75,-6.062 4.13,-13.281 4.13,-21.632 0,-10.231 -2.24,-19.129 -6.77,-26.668 -4.51,-7.551 -10.54,-13.809 -18.09,-18.789 -7.55,-5 -16.24,-8.6918 -26.06,-11.1332 -9.84,-2.4297 -20.13,-3.6172 -30.91,-3.6172 -21.31,0 -39.75,4.1093 -55.39,12.3204"
         style="fill:#393536;fill-opacity:1;fill-rule:nonzero;stroke:none"
         id="path62" /><path
         d="m 5816.72,95.1914 h -33.14 V 302.148 h 33.14 z m -16.17,259.5076 c -5.95,0 -10.98,2.02 -15.16,6.051 -4.17,4.039 -6.26,9.16 -6.26,15.371 0,6.188 2.09,11.359 6.26,15.457 4.18,4.113 9.21,6.172 15.16,6.172 6.06,0 11.21,-2.059 15.46,-6.172 4.24,-4.098 6.35,-9.269 6.35,-15.457 0,-5.941 -2.11,-10.98 -6.35,-15.16 -4.25,-4.172 -9.4,-6.262 -15.46,-6.262"
         style="fill:#393536;fill-opacity:1;fill-rule:nonzero;stroke:none"
         id="path64" /><path
         d="m 5972.74,279.102 c -21.31,0 -38.15,-7.25 -50.54,-21.723 -12.4,-14.5 -18.59,-34.457 -18.59,-59.938 0,-24.519 6.26,-43.851 18.81,-57.98 12.52,-14.152 29.28,-21.242 50.32,-21.242 21.42,0 37.89,6.953 49.4,20.832 11.52,13.871 17.28,33.621 17.28,59.219 0,25.871 -5.76,45.8 -17.28,59.82 -11.51,14.012 -27.98,21.012 -49.4,21.012 z m -2.43,-188.7504 c -30.6,0 -55,9.6604 -73.26,28.9884 -18.27,19.34 -27.39,44.961 -27.39,76.91 0,34.75 9.5,61.91 28.49,81.43 18.98,19.539 44.68,29.308 76.99,29.308 30.85,0 54.94,-9.488 72.26,-28.488 17.31,-19.012 25.98,-45.352 25.98,-79.02 0,-33.019 -9.33,-59.449 -28,-79.332 -18.65,-19.867 -43.7,-29.7964 -75.07,-29.7964"
         style="fill:#393536;fill-opacity:1;fill-rule:nonzero;stroke:none"
         id="path66" /><path
         d="m 6298.1,95.1914 h -33.14 V 213.219 c 0,43.929 -16.04,65.883 -48.11,65.883 -16.55,0 -30.27,-6.243 -41.12,-18.692 -10.85,-12.461 -16.26,-28.191 -16.26,-47.191 V 95.1914 h -33.15 V 302.148 h 33.15 v -34.359 h 0.8 c 15.62,26.133 38.26,39.199 67.89,39.199 22.65,0 39.96,-7.316 51.95,-21.929 12,-14.61 17.99,-35.727 17.99,-63.348 V 95.1914"
         style="fill:#393536;fill-opacity:1;fill-rule:nonzero;stroke:none"
         id="path68" /><path
         d="m 6475.56,199.871 -49.91,-6.851 c -15.37,-2.161 -26.95,-5.969 -34.78,-11.43 -7.79,-5.461 -11.71,-15.129 -11.71,-29.008 0,-10.094 3.6,-18.352 10.83,-24.754 7.19,-6.398 16.78,-9.609 28.77,-9.609 16.45,0 30.03,5.781 40.75,17.293 10.71,11.519 16.05,26.109 16.05,43.738 z m 33.15,-104.6796 h -33.15 v 32.3396 h -0.8 c -14.43,-24.793 -35.64,-37.1794 -63.67,-37.1794 -20.61,0 -36.75,5.4375 -48.4,16.3474 -11.65,10.922 -17.48,25.391 -17.48,43.473 0,38.648 22.77,61.148 68.3,67.508 l 62.05,8.66 c 0,35.191 -14.22,52.762 -42.64,52.762 -24.94,0 -47.44,-8.493 -67.5,-25.461 v 33.941 c 20.34,12.938 43.78,19.406 70.32,19.406 48.65,0 72.97,-25.726 72.97,-77.199 V 95.1914"
         style="fill:#393536;fill-opacity:1;fill-rule:nonzero;stroke:none"
         id="path70" /><path
         d="m 6604.3,95.1914 h -33.14 V 401.578 h 33.14 V 95.1914"
         style="fill:#393536;fill-opacity:1;fill-rule:nonzero;stroke:none"
         id="path72" /><path
         d="m 6775.67,106.91 v 40.031 c 4.58,-4.062 10.07,-7.691 16.46,-10.921 6.4,-3.239 13.15,-5.969 20.21,-8.192 7.09,-2.219 14.2,-3.937 21.34,-5.156 7.13,-1.211 13.74,-1.82 19.79,-1.82 20.89,0 36.49,3.878 46.79,11.636 10.32,7.731 15.46,18.903 15.46,33.442 0,7.82 -1.72,14.609 -5.14,20.41 -3.44,5.781 -8.18,11.082 -14.27,15.871 -6.05,4.777 -13.23,9.359 -21.51,13.738 -8.28,4.36 -17.21,9 -26.77,13.84 -10.11,5.109 -19.54,10.32 -28.3,15.57 -8.77,5.25 -16.38,11.032 -22.85,17.36 -6.46,6.332 -11.53,13.511 -15.25,21.543 -3.71,8.008 -5.55,17.41 -5.55,28.187 0,13.211 2.89,24.68 8.69,34.449 5.78,9.774 13.4,17.821 22.82,24.153 9.44,6.359 20.19,11.058 32.25,14.16 12.05,3.09 24.34,4.648 36.88,4.648 28.57,0 49.39,-3.437 62.45,-10.3 v -38.207 c -17.12,11.859 -39.07,17.777 -65.88,17.777 -7.42,0 -14.82,-0.758 -22.23,-2.32 -7.41,-1.559 -14.01,-4.09 -19.81,-7.571 -5.79,-3.508 -10.51,-8.027 -14.16,-13.558 -3.62,-5.52 -5.43,-12.239 -5.43,-20.2 0,-7.41 1.37,-13.808 4.13,-19.199 2.75,-5.39 6.83,-10.301 12.22,-14.75 5.39,-4.449 11.95,-8.761 19.7,-12.941 7.75,-4.168 16.68,-8.758 26.8,-13.738 10.36,-5.114 20.2,-10.5 29.49,-16.172 9.32,-5.66 17.45,-11.918 24.45,-18.801 7.01,-6.859 12.57,-14.481 16.67,-22.82 4.11,-8.348 6.17,-17.918 6.17,-28.7 0,-14.289 -2.8,-26.379 -8.39,-36.277 -5.57,-9.922 -13.12,-17.973 -22.61,-24.16 -9.52,-6.192 -20.47,-10.6915 -32.85,-13.4415 -12.41,-2.75 -25.46,-4.1289 -39.22,-4.1289 -4.57,0 -10.24,0.3672 -16.97,1.0976 -6.75,0.7422 -13.61,1.8125 -20.63,3.2422 -6.99,1.418 -13.62,3.1602 -19.88,5.25 -6.29,2.0896 -11.29,4.3986 -15.07,6.9686"
         style="fill:#393536;fill-opacity:1;fill-rule:nonzero;stroke:none"
         id="path74" /><path
         d="m 7037.81,208.57 v -28.898 c 0,-17.121 5.55,-31.633 16.68,-43.563 11.1,-11.929 25.2,-17.89 42.34,-17.89 20.07,0 35.78,7.679 47.18,23.051 11.38,15.371 17.07,36.718 17.07,64.058 0,23.051 -5.32,41.113 -15.97,54.16 -10.64,13.071 -25.05,19.614 -43.24,19.614 -19.26,0 -34.77,-6.704 -46.48,-20.122 -11.73,-13.39 -17.58,-30.21 -17.58,-50.41 z m 0.81,-83.468 h -0.81 V 0 h -33.14 v 302.148 h 33.14 V 265.77 h 0.81 c 16.31,27.48 40.13,41.218 71.53,41.218 26.68,0 47.51,-9.269 62.46,-27.777 14.95,-18.531 22.43,-43.352 22.43,-74.473 0,-34.636 -8.41,-62.367 -25.27,-83.168 -16.84,-20.832 -39.86,-31.2184 -69.11,-31.2184 -26.82,0 -47.5,11.5784 -62.04,34.7504"
         style="fill:#393536;fill-opacity:1;fill-rule:nonzero;stroke:none"
         id="path76" /><path
         d="m 7336.91,279.102 c -21.31,0 -38.15,-7.25 -50.53,-21.723 -12.41,-14.5 -18.6,-34.457 -18.6,-59.938 0,-24.519 6.26,-43.851 18.81,-57.98 12.52,-14.152 29.28,-21.242 50.32,-21.242 21.42,0 37.89,6.953 49.4,20.832 11.52,13.871 17.28,33.621 17.28,59.219 0,25.871 -5.76,45.8 -17.28,59.82 -11.51,14.012 -27.98,21.012 -49.4,21.012 z m -2.43,-188.7504 c -30.6,0 -55,9.6604 -73.26,28.9884 -18.26,19.34 -27.39,44.961 -27.39,76.91 0,34.75 9.5,61.91 28.49,81.43 18.99,19.539 44.68,29.308 77,29.308 30.85,0 54.93,-9.488 72.25,-28.488 17.31,-19.012 25.98,-45.352 25.98,-79.02 0,-33.019 -9.33,-59.449 -28,-79.332 -18.65,-19.867 -43.7,-29.7964 -75.07,-29.7964"
         style="fill:#393536;fill-opacity:1;fill-rule:nonzero;stroke:none"
         id="path78" /><path
         d="m 7598.43,268.59 c -5.8,4.449 -14.15,6.68 -25.07,6.68 -14.15,0 -25.96,-6.68 -35.45,-20.032 -9.5,-13.316 -14.24,-31.508 -14.24,-54.558 V 95.1914 h -33.15 V 302.148 h 33.15 v -42.66 h 0.8 c 4.7,14.563 11.92,25.922 21.63,34.063 9.7,8.14 20.53,12.23 32.52,12.23 8.62,0 15.23,-0.949 19.81,-2.832 V 268.59"
         style="fill:#393536;fill-opacity:1;fill-rule:nonzero;stroke:none"
         id="path80" /><path
         d="m 7742.32,97.2109 c -7.82,-4.3125 -18.12,-6.4726 -30.92,-6.4726 -36.24,0 -54.36,20.2107 -54.36,60.6527 v 122.461 h -35.58 v 28.296 h 35.58 v 50.512 l 33.14,10.711 v -61.223 h 52.14 v -28.296 h -52.14 V 157.238 c 0,-13.879 2.34,-23.789 7.07,-29.707 4.73,-5.941 12.52,-8.902 23.44,-8.902 8.35,0 15.57,2.301 21.63,6.883 V 97.2109"
         style="fill:#393536;fill-opacity:1;fill-rule:nonzero;stroke:none"
         id="path82" /></g></g></svg>
