<svg xmlns="http://www.w3.org/2000/svg" xmlns:xlink="http://www.w3.org/1999/xlink" aria-hidden="true" focusable="false" width="0.99em" height="1em" style="-ms-transform: rotate(360deg); -webkit-transform: rotate(360deg); transform: rotate(360deg);" preserveAspectRatio="xMidYMid meet" viewBox="0 0 1024 1040"><path d="M746 851L545 740q50-40 72.5-109T640 500V365q0-44-34.5-88T515 204.5T401 176q-34 0-70 11t-66 30t-54 42.5t-37.5 51.5t-13.5 54v135q0 56 25 127t76 112L54 851q-6 3-15 8t-24 19t-15 27v81q0 23 16 38.5t38 15.5h692q22 0 38-15.5t16-38.5v-81q0-6-3-12.5t-7.5-11.5t-10.5-10t-12-8.5t-10.5-6t-7.5-3.5zm-10 125H64v-57q8-6 16-9l4-2l207-113q5-2 9-5.5t7.5-7t6.5-8t5-9.5t3.5-10t1.5-10q3-34-23-56q-19-15-34.5-40T242 597t-13.5-52t-4.5-45V365q0-38 56.5-81.5T401 240q66 0 120.5 43t54.5 82v135q0 49-17 104.5T505 689q-27 22-24 56t33 51l201 111l6 3q7 3 15 9v57zm234-284L766 580q26-21 46-52.5t31-65.5t16-64.5t5-56.5V206q0-33-21.5-67.5T788 77t-77.5-44.5T622 15q-56 0-111.5 27.5T419 112q5 0 16 .5t17 1t15.5 1.5t17.5 2.5t15 3.5q54-41 122-41q66 0 122 43.5t56 82.5v135q0 47-18.5 103.5T726 530q-27 21-24 56q0 6 2 12t5 11.5t6.5 10.5t8.5 9t11 8l204 111q2 1 3.5 1.5t3 1.5t3.5 2l4 2l3.5 2l3.5 2v57H831q9 7 15.5 18t9.5 20t8 26h106q15 0 27.5-7t19.5-19.5t7-27.5v-80q0-14-13.5-27.5T983 698z" fill="#626262"/></svg>