<svg xmlns="http://www.w3.org/2000/svg" xmlns:xlink="http://www.w3.org/1999/xlink" aria-hidden="true" focusable="false" width="1.04em" height="1em" style="-ms-transform: rotate(360deg); -webkit-transform: rotate(360deg); transform: rotate(360deg);" preserveAspectRatio="xMidYMid meet" viewBox="0 0 1056 1024"><path d="M1033 513L552 10q-4-5-10-7.5T529 0q-13 0-23 10L23 513q-6 7-8 15t.5 16.5T24 559q5 4 11 6.5t12 2t12-3t10-6.5l44-45v479q0 13 9 22.5t23 9.5h223q4 0 7.5-1t6.5-2.5t6-4t5-5t3.5-5.5t2.5-7t1-7l1-320h255v320q0 13 9.5 22.5t22.5 9.5h224q13 0 22.5-9.5T944 992V513l43 45q9 10 23 10q13 0 22-9q9-10 9.5-23t-8.5-23zm-153-58v505H720V640q0-13-9.5-22.5T688 608H369q-13 0-22.5 9.5T337 640l-1 320H177V455q0-4-1-8L529 79l352 368q-1 4-1 8z" fill="#626262"/></svg>